<svg width="385" height="229" viewBox="0 0 385 229" fill="none" xmlns="http://www.w3.org/2000/svg">
<path d="M58.3167 92.4917C62.837 93.0532 68.211 93.6433 74.5589 94.2563C78.3287 94.623 81.7719 97.4417 84.2698 100.175C85.7938 101.836 87.1459 103.623 88.3261 105.537C85.0776 103.515 79.7037 102.69 73.5047 102.025C67.3 101.36 60.2703 100.862 53.7162 99.4813C48.9037 98.4672 45.1912 96.7027 42.4985 94.6402C39.8 92.5834 38.1156 90.2287 37.3708 88.0344C38.3563 88.9053 41.3068 89.8448 47.1849 90.8761C50.124 91.3917 53.7906 91.9303 58.3167 92.4917Z" fill="#14213D"/>
<path d="M37.5026 77.2865C40.6708 77.8537 44.4177 78.4151 48.8693 79.0281C49.3849 79.0969 49.912 79.1656 50.4448 79.2401C55.6755 79.9391 61.8286 80.7182 69.0818 81.6005C72.8344 82.0531 76.0198 84.6656 78.2828 87.2094C79.6979 88.7964 80.9239 90.5209 81.9609 92.3714C80.7177 91.8042 77.5724 91.0709 75.9109 90.7615C72.0724 90.0453 68.1536 89.6156 64.275 89.1802C61.0896 88.8193 57.9901 88.487 54.9651 88.1261C50.1354 87.5474 45.5635 86.9057 41.1349 85.9948C40.2755 85.8172 39.4276 85.6224 38.5911 85.4162C34.1854 84.3276 30.7937 82.3167 28.2786 80.0537C25.563 77.6245 23.8672 74.9031 23.0823 72.6287C25.1677 74.3073 28.7484 75.5849 35.0219 76.8224C35.8068 76.9771 36.6318 77.1318 37.5026 77.2865Z" fill="#14213D"/>
<path d="M41.3296 65.8338C47.5401 66.7161 54.8734 67.713 63.5989 68.939C71.3448 70.0333 75.5901 79.2057 75.5901 79.2057C74.4328 78.8906 69.7921 78.1 68.4286 77.9338C58.9698 76.7708 51.2411 75.9286 44.389 75.0349C37.5369 74.1469 31.5729 73.213 25.6375 71.8838C20.6015 70.7495 16.7974 68.263 14.0531 65.4729C11.3088 62.6828 9.61871 59.5833 8.79944 57.2229C12.4203 60.0588 17.3989 61.7604 25.8265 63.3646C30.0432 64.1667 35.125 64.9458 41.3296 65.8338Z" fill="#14213D"/>
<mask id="mask0_261_246" style="mask-type:alpha" maskUnits="userSpaceOnUse" x="0" y="37" width="96" height="73">
<path d="M0.199951 37.2053H95.9114V109.805H0.199951V37.2053Z" fill="white"/>
</mask>
<g mask="url(#mask0_261_246)">
<path d="M1.55202 37.2397C2.1765 42.6252 15.2218 48.171 64.0171 56.1288C78.9645 58.5694 83.2098 63.9205 86.7104 75.2757C89.6609 84.8663 95.0979 106.15 95.9973 109.777C91.8322 107.05 82.8374 85.8632 79.715 78.9882C76.5926 72.1075 74.7421 66.934 64.0171 65.4101C34.0364 61.1533 20.3781 58.5293 15.1187 56.6559C-0.80267 50.984 1.55202 37.2397 1.55202 37.2397Z" fill="#14213D"/>
</g>
<path d="M301.692 101.761C295.115 102.592 287.294 103.457 278.065 104.362C272.582 104.895 267.574 109.043 263.942 113.054C261.731 115.494 259.76 118.124 258.035 120.937C262.762 117.958 270.582 116.749 279.6 115.775C288.623 114.801 298.85 114.062 308.389 112.034C315.379 110.544 320.781 107.949 324.7 104.924C328.624 101.893 331.071 98.4327 332.159 95.2129C330.727 96.4905 326.436 97.8712 317.888 99.3895C313.608 100.146 308.274 100.936 301.692 101.761Z" fill="#14213D"/>
<path d="M331.97 79.4178C327.358 80.2485 321.91 81.0735 315.43 81.973C314.68 82.0761 313.918 82.1792 313.139 82.2823C305.53 83.3136 296.587 84.4652 286.034 85.7542C280.574 86.4245 275.939 90.2631 272.651 93.9985C270.594 96.336 268.812 98.8625 267.3 101.59C269.104 100.747 273.688 99.6761 276.1 99.2178C281.685 98.1693 287.386 97.5391 293.029 96.8974C297.658 96.3646 302.167 95.8777 306.567 95.3448C313.591 94.4969 320.243 93.5516 326.682 92.211C327.937 91.9474 329.169 91.6667 330.383 91.3688C336.789 89.7646 341.721 86.8027 345.388 83.4855C349.33 79.9105 351.799 75.9172 352.939 72.5657C349.908 75.0349 344.701 76.9141 335.574 78.7303C334.434 78.9594 333.231 79.1886 331.97 79.4178Z" fill="#14213D"/>
<path d="M326.401 62.5798C317.372 63.8803 306.699 65.3413 294.009 67.1517C282.745 68.7558 276.563 82.2366 276.563 82.2366C278.248 81.7725 284.997 80.6095 286.985 80.3631C300.741 78.6616 311.987 77.4126 321.95 76.1064C331.913 74.8001 340.593 73.4308 349.227 71.4772C356.554 69.8043 362.077 66.1548 366.07 62.0527C370.063 57.9506 372.521 53.3959 373.713 49.9241C368.448 54.0949 361.212 56.5928 348.946 58.9532C342.816 60.1334 335.431 61.2793 326.401 62.5798Z" fill="#14213D"/>
<mask id="mask1_261_246" style="mask-type:alpha" maskUnits="userSpaceOnUse" x="246" y="20" width="139" height="108">
<path d="M246.886 20.5105H384.467V127.21H246.886V20.5105Z" fill="white"/>
</mask>
<g mask="url(#mask1_261_246)">
<path d="M384.255 20.5564C383.344 28.4741 364.374 36.621 293.402 48.3199C271.659 51.9007 265.483 59.7668 260.396 76.4559C256.099 90.5554 248.193 121.837 246.886 127.17C252.942 123.16 266.028 92.022 270.571 81.9158C275.114 71.8038 277.795 64.2012 293.402 61.9611C337.012 55.6991 356.875 51.8491 364.523 49.0934C387.681 40.7574 384.255 20.5564 384.255 20.5564Z" fill="#14213D"/>
</g>
<path d="M181.482 129.456C181.041 130.585 180.629 131.691 180.256 132.796C179.529 134.985 178.847 137.128 178.463 139.19C178.268 140.227 178.119 141.144 178.022 142.175C177.993 142.696 177.959 143.189 177.925 143.699C177.913 144.163 177.913 144.644 177.896 145.097C177.884 147.005 177.925 148.792 178.01 150.396C178.171 153.616 178.56 156.24 179.002 157.924C179.168 158.79 179.443 159.477 179.58 159.947C179.718 160.411 179.758 160.669 179.678 160.697C179.603 160.737 179.431 160.543 179.151 160.13C178.876 159.741 178.475 159.145 178.159 158.245C177.386 156.469 176.75 153.851 176.366 150.528C176.171 148.884 176.034 147.073 175.982 145.125C175.965 144.633 175.954 144.123 175.936 143.602C175.954 143.103 175.965 142.605 175.982 142.083C176.022 141.064 176.171 139.883 176.355 138.8C176.71 136.589 177.363 134.355 178.091 132.08C178.463 130.94 178.876 129.783 179.322 128.637C179.54 128.07 179.758 127.497 179.993 126.918C180.256 126.208 180.52 125.749 180.778 125.154C182.972 120.559 185.453 116.48 187.412 112.67C189.429 108.866 190.924 105.325 191.795 102.254C193.588 96.0666 192.689 91.976 193.13 91.9359C193.273 91.9359 193.6 92.9099 193.875 94.7432C194.127 96.5994 194.098 99.3609 193.393 102.649C192.689 105.927 191.268 109.702 189.331 113.609C187.423 117.568 184.994 121.693 182.892 126.122C182.64 126.672 182.307 127.302 182.141 127.766C181.923 128.333 181.706 128.895 181.482 129.456ZM186.295 129.989C192.482 114.515 204.342 99.7963 196.945 82.3739C195.53 79.0109 193.502 76.0604 191.061 73.4536C192.608 79.8187 191.589 86.2411 189.079 92.4974C189.039 92.6922 188.97 92.8698 188.873 93.0302C187.962 95.2531 186.856 97.4531 185.636 99.6302C178.091 112.916 168.729 125.933 169.629 142.02C170.356 155.472 178.051 168.334 190.322 173.829C188.306 171.411 186.707 168.506 185.573 165.115C181.826 153.96 181.895 140.983 186.295 129.989Z" fill="#14213D"/>
<path d="M195.187 169.062C188.844 162.181 190.265 150.603 192.225 142.324C193.548 136.732 195.106 131.204 197.14 125.807C199.048 120.776 202.892 116.823 205.069 111.942C210.678 99.2749 208.925 84.3791 200.755 73.0869C193.118 62.5395 181.838 57.6755 169.818 53.5906C145.251 45.2088 118.284 40.2645 92.5141 45.6728C92.4912 45.6728 92.4511 45.6728 92.4167 45.6843C91.8954 46.6869 91.374 47.6895 90.8469 48.6921C95.837 47.3744 100.844 47.3057 106.264 47.3572C114.823 47.4718 123.412 47.7124 131.942 48.5833C147.703 50.1588 163.768 53.0406 178.148 59.9843C180.972 61.3593 183.757 62.8661 186.381 64.5676C186.856 64.6421 187.315 64.9228 187.664 65.4156C194.47 70.1249 200.016 76.238 202.096 84.7744C205.178 97.4531 201.569 108.109 195.794 119.39C189.051 132.544 184.341 146.443 188.678 161.236C190.443 167.217 193.766 173.852 199.787 176.447C208.255 177.598 216.763 176.378 224.909 173.909C226.766 173.158 228.605 172.356 230.381 171.566C234.792 169.629 238.27 168.781 240.642 165.55C227.407 172.511 206.078 180.91 195.187 169.062Z" fill="#14213D"/>
<path d="M117.694 28.5943C116.519 28.537 114.147 28.9953 114.675 30.4906C114.921 31.1953 115.82 31.8141 116.531 32.0203C117.127 32.1865 117.488 32.2037 117.992 32.0089C118.215 31.9229 118.903 31.436 119 31.2927C119.08 31.1724 119.361 30.6339 119.384 30.6339C119.527 30.2386 119.539 30.2099 119.539 30.0438C119.539 29.5682 119.527 29.4422 119.189 29.1557C118.92 28.9209 118.272 28.7146 117.694 28.5943Z" fill="#14213D"/>
<path d="M120.06 161.041C120.026 161.179 119.441 161.368 118.232 161.11C117.086 160.858 115.517 160.165 113.872 158.927C112.228 157.707 110.441 156.045 108.882 153.736C107.416 151.439 106.293 148.569 105.685 145.549C104.431 139.471 104.677 133.942 104.866 130.023C105.135 126.087 105.433 123.67 105.748 123.658C106.086 123.658 106.344 126.11 106.51 130.023C106.728 133.931 106.774 139.362 107.96 145.057C108.539 147.927 109.49 150.465 110.704 152.619C111.959 154.687 113.529 156.4 114.921 157.661C116.313 158.95 117.608 159.792 118.536 160.262C119.418 160.726 120.094 160.875 120.06 161.041ZM111.489 143.052C109.048 134.521 109.988 125.686 109.53 116.915C109.06 107.748 108.418 98.5875 108.126 89.4093C101.532 87.8338 96.8052 84.6197 93.2589 80.3171C94.2271 87.4041 93.5281 94.6515 93.3448 101.773C92.9839 116.256 88.2573 132.458 93.2245 146.592C96.1979 155.025 101.492 161.792 110.968 162.508C117.109 162.972 123.217 162.279 129.272 161.15C121.04 158.022 114.067 152.023 111.489 143.052Z" fill="#14213D"/>
<mask id="mask2_261_246" style="mask-type:alpha" maskUnits="userSpaceOnUse" x="87" y="50" width="101" height="36">
<path d="M87.9193 50.6001H187.933V85.8001H87.9193V50.6001Z" fill="white"/>
</mask>
<g mask="url(#mask2_261_246)">
<path d="M97.8308 75.8141C97.6703 75.8714 97.0229 74.6912 95.9229 72.5084C95.3901 71.4084 94.7141 70.0506 94.1698 68.349C93.8948 67.5011 93.6599 66.573 93.5167 65.5417C93.4308 64.9058 93.4193 64.5678 93.4308 63.9376C93.4422 63.3303 93.4938 62.7459 93.7172 62.1214C94.0495 60.8495 95.2927 59.7209 96.5417 59.2683C97.7964 58.7756 99.0683 58.5521 100.334 58.3344C102.941 57.8245 105.628 57.5553 108.493 57.1428C109.931 56.9251 111.466 56.9251 112.99 56.799C114.52 56.7303 116.095 56.5355 117.694 56.5928C120.879 56.7188 124.196 56.6214 127.548 57.1657C130.94 57.5667 134.079 58.0193 137.225 58.4777C140.341 58.9131 143.349 59.3428 146.219 59.7323C151.948 60.586 157.11 61.4683 161.396 62.5053C162.461 62.7573 163.476 62.998 164.444 63.2329C165.395 63.5079 166.289 63.7829 167.131 64.0292C168.809 64.5219 170.247 64.9631 171.393 65.4443C173.679 66.3438 174.922 66.9282 174.848 67.0771C174.716 67.4323 169.611 65.662 161.046 64.098C152.55 62.4652 140.456 61.2735 127.273 59.4745C124.025 58.9245 120.799 59.0105 117.694 58.8558C116.147 58.8042 114.634 58.9646 113.145 59.0105C111.655 59.1021 110.206 59.062 108.756 59.2568C105.903 59.612 103.102 59.8297 100.65 60.2308C98.1287 60.5688 95.774 60.9698 95.2584 62.6714C95.0979 63.0724 95.0235 63.548 94.9891 63.9719C94.9433 64.3844 94.9433 65.0433 94.9891 65.387C95.0521 66.3094 95.2183 67.186 95.4131 67.9938C95.8141 69.6266 96.3469 71.0131 96.7537 72.1646C97.6016 74.4391 97.974 75.7626 97.8308 75.8141ZM107.948 85.1183C105.943 77.4641 103.354 68.6527 113.832 66.1032C123.497 63.7542 134.033 65.7021 143.641 67.5412C157.723 70.2454 179.54 71.5573 186.971 85.5823C188.34 79.7501 187.933 73.7688 184.209 67.6787C174.172 60.8896 160.903 57.4006 150.086 55.3209C139.447 53.2641 128.665 52.1641 117.826 51.7631C108.43 51.4079 97.4813 49.924 88.6469 53.6995C88.6297 53.6995 88.6183 53.6995 88.6011 53.7167C88.1198 55.3323 87.9136 56.9251 87.9136 58.4891C88.0396 58.6782 88.1485 58.8844 88.2172 59.148C91.437 71.2881 95.6479 81.5089 107.948 85.1183Z" fill="#14213D"/>
</g>
<path d="M182.491 40.9407C181.316 40.8834 178.944 41.3418 179.471 42.8371C179.718 43.5475 180.617 44.1605 181.333 44.3668C181.923 44.5386 182.284 44.5501 182.794 44.3553C183.012 44.2751 183.699 43.7767 183.797 43.6449C183.883 43.5188 184.158 42.986 184.186 42.986C184.324 42.585 184.341 42.5563 184.341 42.3902C184.341 41.9147 184.324 41.7944 183.992 41.5022C183.711 41.2673 183.069 41.061 182.491 40.9407Z" fill="#14213D"/>
<path d="M171.857 115.065C175.707 107.662 181.482 99.8937 184.897 91.8385C181.041 75.8713 159.563 74.8401 146.242 72.2333C138.743 70.7552 131.083 69.1854 123.411 69.214C119.831 69.2312 115.07 69.0651 112.056 71.3281C107.341 74.8515 111.609 82.4713 112.578 86.5848C112.715 87.2208 112.589 87.7364 112.314 88.1604C112.285 88.2578 112.245 88.3552 112.217 88.4468C112.606 102.707 113.363 117.001 113.895 131.255C114.491 146.483 123.314 157.432 138.577 159.311C148.27 157.346 158.073 155.415 167.916 155.1C163.052 142.353 165.75 126.827 171.857 115.065Z" fill="#14213D"/>
<path d="M232.34 162.244C230.661 163.058 228.215 164.267 224.978 165.321C224.182 165.607 223.311 165.831 222.4 166.048C221.506 166.306 220.538 166.461 219.547 166.621C217.565 166.936 215.284 167.034 213.136 166.948C212.586 166.925 212.019 166.913 211.44 166.896C210.902 166.873 210.352 166.856 209.773 166.873C208.644 166.873 207.401 166.856 206.095 166.707C205.43 166.541 204.754 166.501 204.107 166.18C203.774 166.048 203.448 165.922 203.11 165.756L202.159 165.097L201.695 164.759L201.362 164.416L200.732 163.739L200.56 163.568L200.48 163.47L200.452 163.436L200.429 163.384L200.343 163.275L200.068 162.851L199.501 161.986C198.085 159.614 197.421 156.979 197.215 154.47C197.089 151.972 197.249 149.571 197.667 147.348C198.441 142.903 199.861 139.127 201.105 136.028C203.706 129.84 205.803 126.305 206.049 126.403C206.398 126.551 204.806 130.379 202.646 136.589C201.615 139.723 200.4 143.464 199.787 147.692C199.449 149.8 199.352 152.023 199.483 154.292C199.707 156.544 200.303 158.807 201.489 160.795L201.976 161.517L202.205 161.878L202.256 161.975L202.291 162.015L202.302 162.026L202.411 162.147L203.064 162.84L203.373 163.167L203.666 163.361C203.86 163.482 204.049 163.608 204.233 163.739C204.451 163.866 204.697 163.946 204.932 164.043C205.373 164.289 205.94 164.318 206.439 164.456C207.51 164.593 208.644 164.633 209.807 164.662C210.374 164.662 210.97 164.691 211.56 164.731C212.116 164.759 212.672 164.782 213.216 164.811C214.305 164.857 215.416 164.977 216.396 164.891C217.387 164.857 218.349 164.868 219.301 164.713C220.234 164.605 221.162 164.513 222.016 164.307C222.898 164.141 223.741 163.992 224.526 163.739C227.694 162.937 230.203 161.975 231.985 161.408C233.761 160.823 234.769 160.56 234.827 160.709C234.89 160.846 233.996 161.396 232.34 162.244ZM218.899 139.82C222.028 140.227 224.674 143.069 225.161 146.168C225.7 149.554 224.193 152.338 221.048 153.605C220.882 153.702 220.721 153.771 220.504 153.822C220.32 153.891 220.143 153.92 219.977 153.92C215.743 154.636 211.497 151.216 211.755 146.747C211.95 143.223 214.992 139.299 218.899 139.82ZM211.417 78.3978C210.627 76.1291 209.653 73.465 208.335 70.6692C206.96 67.8963 205.086 65.1864 202.531 62.6312C200.188 60.2707 198.154 57.8416 195.822 56.5525C195.244 56.1457 194.551 55.8077 194.041 55.59C193.462 55.3437 192.815 55.1145 192.196 54.8796C190.941 54.4213 189.635 53.8884 188.592 53.0004L187.63 52.1468L188.707 51.5739C189.698 51.041 190.288 49.9926 190.706 49.0358C191.119 48.0733 191.296 47.128 191.48 46.3603C191.772 44.8192 191.904 43.9197 192.087 43.9197C192.247 43.9197 192.471 44.8077 192.459 46.4692C192.431 47.2884 192.385 48.3197 192.03 49.4884C191.783 50.3249 191.394 51.3103 190.637 52.1754C191.268 52.4905 192.012 52.7541 192.843 53.0004C193.473 53.1895 194.127 53.3957 194.843 53.6535C195.628 53.9744 196.246 54.2608 196.882 54.6619C197.541 55.0858 198.246 55.4983 198.905 55.9624C199.518 56.4838 200.136 57.0051 200.755 57.5437C201.901 58.6666 203.064 59.8296 204.204 61.0098C206.862 63.6681 208.959 66.802 210.277 69.7812C211.56 72.7832 212.391 75.5791 212.987 77.9108C214.156 82.5801 214.803 85.4848 214.499 85.5937C214.196 85.691 212.998 82.9468 211.417 78.3978ZM183.247 48.4858C179.775 49.116 175.484 46.5379 175.289 42.814C175.083 38.9239 179.168 36.4088 182.731 36.8213C182.829 36.8384 182.926 36.8671 183.035 36.8843C183.121 36.8957 183.195 36.8957 183.276 36.9072C186.197 37.3999 188.816 39.6228 188.449 42.791C188.111 45.5353 186.031 47.9759 183.247 48.4858ZM123.646 30.4447C123.314 33.189 121.234 35.6296 118.45 36.1395C114.972 36.7697 110.687 34.1858 110.498 30.4676C110.292 26.5775 114.371 24.0624 117.94 24.4749C118.037 24.4864 118.135 24.5207 118.244 24.5322C118.33 24.5437 118.393 24.5437 118.479 24.5608C121.401 25.0535 124.024 27.2707 123.646 30.4447ZM254.827 58.6093C245.191 26.8067 214.849 7.31605 183.121 1.86761C162.003 -1.76468 138.347 -0.24645 119.613 11.0572C107.765 18.19 101.022 29.3848 94.8458 41.0608C117.253 37.1249 140.742 40.2817 162.353 46.853C181.207 52.5879 201.07 59.7551 208.902 79.4921C213.096 90.0166 213.904 100.673 209.807 111.346C207.842 116.462 204.09 120.461 201.844 125.383C199.243 131.06 197.518 137.317 196.206 143.424C193.405 156.458 195.158 172.454 212.322 170.483C222.87 169.268 233.681 164.868 242.807 159.666C242.951 159.586 243.111 159.517 243.243 159.477C244.182 156.486 245.162 153.53 246.72 150.792C252.14 141.161 254.14 129.416 255.159 118.565C256.958 99.2634 260.551 77.5155 254.827 58.6093Z" fill="#14213D"/>
<path d="M219.409 149.858C222.257 148.936 221.289 144.782 219.008 144.026C218.418 143.837 218.086 143.739 217.398 144.209C216.745 144.656 215.96 145.55 215.909 146.386C215.8 148.391 217.204 150.408 219.409 149.858Z" fill="#14213D"/>
<path d="M131.493 227.778L125.832 217.259H124.984V227.778H117.055V199.269H129.545C131.836 199.269 133.773 199.67 135.366 200.461C136.953 201.257 138.15 202.352 138.964 203.738C139.771 205.13 140.178 206.689 140.178 208.413C140.178 210.355 139.64 212.057 138.574 213.523C137.503 214.99 135.944 216.039 133.899 216.663L140.339 227.778H131.493ZM124.984 211.851H128.903C129.969 211.851 130.771 211.598 131.309 211.094C131.859 210.579 132.134 209.828 132.134 208.848C132.134 207.932 131.848 207.216 131.286 206.694C130.736 206.179 129.94 205.915 128.903 205.915H124.984V211.851Z" fill="#14213D"/>
<path d="M151.694 205.617V210.269H160.769V216.296H151.694V221.43H161.983V227.778H143.765V199.269H161.983V205.617H151.694Z" fill="#14213D"/>
<path d="M199.183 199.269V227.778H191.254V212.057L185.869 227.778H179.246L173.837 211.942V227.778H165.908V199.269H175.487L182.637 217.786L189.627 199.269H199.183Z" fill="#14213D"/>
<path d="M217.348 228.053C214.672 228.053 212.22 227.428 209.991 226.174C207.757 224.925 205.987 223.189 204.675 220.971C203.357 218.743 202.704 216.228 202.704 213.432C202.704 210.625 203.357 208.11 204.675 205.892C205.987 203.664 207.757 201.928 209.991 200.69C212.22 199.453 214.672 198.834 217.348 198.834C220.035 198.834 222.487 199.453 224.704 200.69C226.933 201.928 228.697 203.664 229.998 205.892C231.293 208.11 231.946 210.625 231.946 213.432C231.946 216.228 231.293 218.743 229.998 220.971C228.697 223.189 226.933 224.925 224.704 226.174C222.47 227.428 220.018 228.053 217.348 228.053ZM217.348 220.696C219.364 220.696 220.957 220.043 222.137 218.726C223.312 217.396 223.902 215.632 223.902 213.432C223.902 211.175 223.312 209.387 222.137 208.069C220.957 206.757 219.364 206.099 217.348 206.099C215.297 206.099 213.693 206.757 212.535 208.069C211.372 209.387 210.794 211.175 210.794 213.432C210.794 215.666 211.372 217.437 212.535 218.749C213.693 220.049 215.297 220.696 217.348 220.696Z" fill="#14213D"/>
</svg>
